<mxfile host="65bd71144e">
    <diagram id="LL9db_0Ls69Hq6524lwW" name="Users and post architecture">
        <mxGraphModel dx="1742" dy="326" grid="1" gridSize="10" guides="1" tooltips="1" connect="1" arrows="1" fold="1" page="1" pageScale="1" pageWidth="1100" pageHeight="850" math="0" shadow="0">
            <root>
                <mxCell id="0"/>
                <mxCell id="1" parent="0"/>
                <mxCell id="16" value="" style="edgeStyle=none;html=1;" parent="1" source="2" target="15" edge="1">
                    <mxGeometry relative="1" as="geometry"/>
                </mxCell>
                <mxCell id="2" value="User Object" style="whiteSpace=wrap;html=1;" parent="1" vertex="1">
                    <mxGeometry x="20" y="30" width="120" height="60" as="geometry"/>
                </mxCell>
                <mxCell id="3" value="" style="edgeStyle=none;orthogonalLoop=1;jettySize=auto;html=1;" parent="1" edge="1">
                    <mxGeometry width="100" relative="1" as="geometry">
                        <mxPoint x="140" y="50" as="sourcePoint"/>
                        <mxPoint x="240" y="50" as="targetPoint"/>
                        <Array as="points"/>
                    </mxGeometry>
                </mxCell>
                <mxCell id="4" value="Posts by Uset" style="whiteSpace=wrap;html=1;" parent="1" vertex="1">
                    <mxGeometry x="240" y="30" width="120" height="60" as="geometry"/>
                </mxCell>
                <mxCell id="5" value="" style="edgeStyle=none;orthogonalLoop=1;jettySize=auto;html=1;" parent="1" edge="1">
                    <mxGeometry width="80" relative="1" as="geometry">
                        <mxPoint x="140" y="80" as="sourcePoint"/>
                        <mxPoint x="240" y="80" as="targetPoint"/>
                        <Array as="points">
                            <mxPoint x="190" y="80"/>
                        </Array>
                    </mxGeometry>
                </mxCell>
                <mxCell id="6" value="" style="edgeStyle=none;orthogonalLoop=1;jettySize=auto;html=1;endArrow=ERmany;endFill=0;" parent="1" edge="1">
                    <mxGeometry width="80" relative="1" as="geometry">
                        <mxPoint x="360" y="59.5" as="sourcePoint"/>
                        <mxPoint x="440" y="59.5" as="targetPoint"/>
                        <Array as="points"/>
                    </mxGeometry>
                </mxCell>
                <mxCell id="9" value="" style="edgeStyle=none;html=1;endArrow=ERmany;endFill=0;" parent="1" source="7" edge="1">
                    <mxGeometry relative="1" as="geometry">
                        <mxPoint x="505" y="180" as="targetPoint"/>
                    </mxGeometry>
                </mxCell>
                <mxCell id="7" value="Post:&lt;br&gt;" style="ellipse;whiteSpace=wrap;html=1;" parent="1" vertex="1">
                    <mxGeometry x="440" y="20" width="130" height="80" as="geometry"/>
                </mxCell>
                <mxCell id="10" value="&lt;div&gt;&lt;ol&gt;&lt;li&gt;Id&lt;/li&gt;&lt;li&gt;Post Title&lt;/li&gt;&lt;li&gt;Post Content&lt;/li&gt;&lt;li&gt;Author id&lt;/li&gt;&lt;/ol&gt;&lt;/div&gt;" style="whiteSpace=wrap;html=1;align=left;" parent="1" vertex="1">
                    <mxGeometry x="422.5" y="180" width="165" height="100" as="geometry"/>
                </mxCell>
                <mxCell id="15" value="&lt;ol&gt;&lt;li&gt;userId&lt;/li&gt;&lt;li&gt;username&lt;/li&gt;&lt;li&gt;email&lt;/li&gt;&lt;li&gt;verifiedEmail&lt;/li&gt;&lt;li&gt;profile image.&lt;/li&gt;&lt;/ol&gt;" style="rounded=1;whiteSpace=wrap;html=1;align=left;" parent="1" vertex="1">
                    <mxGeometry x="-9" y="170" width="180" height="100" as="geometry"/>
                </mxCell>
            </root>
        </mxGraphModel>
    </diagram>
</mxfile>